<svg width="903" height="357" viewBox="0 0 903 357" fill="none" xmlns="http://www.w3.org/2000/svg">
<path fill-rule="evenodd" clip-rule="evenodd" d="M75.6166 84.3175C77.0631 82.5943 79.5662 82.5219 81.0977 84.1591L110.001 115.057L53.4892 181.872H74.8801L120.953 229.509H38.2126C6.93691 229.509 -10.7836 191.194 8.20541 164.627L75.6166 84.3175Z" fill="url(#paint0_linear_151_13)"/>
<path fill-rule="evenodd" clip-rule="evenodd" d="M166.891 48.4453H159.473L114.156 0H182.168C213.443 0 231.164 38.3155 212.175 64.8822L145.123 146.168C143.688 147.908 141.179 148 139.636 146.369L110.001 115.057L166.891 48.4453Z" fill="url(#paint1_linear_151_13)"/>
<path d="M0.859375 0H182.165C213.44 0 231.161 38.3155 212.172 64.8822C223.92 48.4453 196.101 48.4453 166.888 48.4453H88.6189L78.5484 37.6796L68.4779 48.4453H46.1767L34.8474 36.334L42.4002 24.2226H23.518L0.859375 0Z" fill="url(#paint2_linear_151_13)"/>
<path fill-rule="evenodd" clip-rule="evenodd" d="M7.8265 165.118C-11.1625 191.685 6.55801 230 37.8337 230H128.298H132L142 220L152 230H218.761L195.725 205.778H176.654L184.207 193.666L172.689 181.555H152.065H142H131.924H53.1103C24.6523 181.555 -3.92209 181.555 7.8265 165.118Z" fill="url(#paint3_linear_151_13)"/>
<path d="M78.551 44.1387L85.2647 51.3157L88.6215 54.9043H68.4805L71.8373 51.3157L78.551 44.1387Z" fill="#3065A7"/>
<path d="M142.07 225L135.356 232.177L132 235.766H152.141L148.784 232.177L142.07 225Z" fill="#3065A7"/>
<path d="M396 57.5L335.25 175V233H292.5V175L231.75 57.5H280.25L314.25 131L348 57.5H396ZM478.975 57.5C497.475 57.5 513.641 61.1667 527.475 68.5C541.308 75.8333 551.975 86.1667 559.475 99.5C567.141 112.667 570.975 127.917 570.975 145.25C570.975 162.417 567.141 177.667 559.475 191C551.975 204.333 541.225 214.667 527.225 222C513.391 229.333 497.308 233 478.975 233H413.225V57.5H478.975ZM476.225 196C492.391 196 504.975 191.583 513.975 182.75C522.975 173.917 527.475 161.417 527.475 145.25C527.475 129.083 522.975 116.5 513.975 107.5C504.975 98.5 492.391 94 476.225 94H455.975V196H476.225ZM637.615 91.75V127.25H694.865V160.25H637.615V198.75H702.365V233H594.865V57.5H702.365V91.75H637.615ZM887.119 233H844.369L772.869 124.75V233H730.119V57.5H772.869L844.369 166.25V57.5H887.119V233Z" fill="#3992CD"/>
<path d="M65.9 338V268.3H81.6V338H65.9ZM123.739 338V282.3H103.339V268.3H159.939V282.3H139.639V338H123.739Z" fill="#4074B5"/>
<path d="M235.734 322.712C236.361 321.772 237.395 320.895 238.836 320.08C240.277 319.265 241.687 318.827 243.066 318.764C243.254 320.519 243.755 322.305 244.57 324.122C245.385 325.877 246.544 327.475 248.048 328.916C249.615 330.295 251.526 331.454 253.782 332.394C256.038 333.271 258.733 333.71 261.866 333.71C266.441 333.71 270.075 332.551 272.77 330.232C275.465 327.851 276.812 324.749 276.812 320.926C276.812 317.291 275.872 314.283 273.992 311.902C272.112 309.521 268.697 307.703 263.746 306.45L254.91 304.194C252.654 303.63 250.523 302.972 248.518 302.22C246.513 301.468 244.758 300.497 243.254 299.306C241.75 298.053 240.559 296.549 239.682 294.794C238.867 292.977 238.46 290.783 238.46 288.214C238.46 285.645 239.087 283.169 240.34 280.788C241.593 278.407 243.317 276.307 245.51 274.49C247.766 272.61 250.367 271.106 253.312 269.978C256.32 268.85 259.547 268.286 262.994 268.286C266.441 268.286 269.386 268.725 271.83 269.602C274.274 270.479 276.248 271.545 277.752 272.798C279.256 274.051 280.353 275.43 281.042 276.934C281.794 278.375 282.233 279.66 282.358 280.788C281.919 281.665 281.105 282.48 279.914 283.232C278.723 283.921 277.345 284.36 275.778 284.548C275.527 283.169 275.057 281.822 274.368 280.506C273.679 279.127 272.676 277.905 271.36 276.84C270.107 275.712 268.54 274.803 266.66 274.114C264.78 273.425 262.555 273.08 259.986 273.08C255.725 273.08 252.309 274.208 249.74 276.464C247.171 278.657 245.886 281.571 245.886 285.206C245.886 287.274 246.199 288.997 246.826 290.376C247.453 291.692 248.33 292.82 249.458 293.76C250.586 294.637 251.902 295.358 253.406 295.922C254.973 296.486 256.665 296.987 258.482 297.426L266.754 299.494C270.201 300.371 273.052 301.437 275.308 302.69C277.627 303.943 279.444 305.322 280.76 306.826C282.076 308.33 282.985 309.991 283.486 311.808C284.05 313.563 284.332 315.38 284.332 317.26C284.332 320.08 283.737 322.775 282.546 325.344C281.355 327.913 279.632 330.201 277.376 332.206C275.12 334.149 272.394 335.715 269.198 336.906C266.065 338.034 262.524 338.598 258.576 338.598C254.753 338.598 251.432 338.097 248.612 337.094C245.792 336.091 243.442 334.838 241.562 333.334C239.682 331.767 238.241 330.044 237.238 328.164C236.298 326.284 235.797 324.467 235.734 322.712ZM331.854 310.774C331.854 314.722 332.324 318.169 333.264 321.114C334.267 324.059 335.551 326.535 337.118 328.54C338.747 330.483 340.596 331.955 342.664 332.958C344.795 333.961 347.019 334.462 349.338 334.462C354.351 334.462 358.174 332.801 360.806 329.48C363.438 326.096 364.754 321.02 364.754 314.252C364.754 310.993 364.378 307.954 363.626 305.134C362.874 302.314 361.746 299.87 360.242 297.802C358.801 295.734 357.015 294.105 354.884 292.914C352.753 291.723 350.309 291.128 347.552 291.128C345.547 291.128 343.604 291.504 341.724 292.256C339.844 293.008 338.183 294.199 336.742 295.828C335.301 297.395 334.11 299.431 333.17 301.938C332.293 304.382 331.854 307.327 331.854 310.774ZM323.958 313.688C323.958 309.865 324.647 306.325 326.026 303.066C327.405 299.745 329.253 296.925 331.572 294.606C333.953 292.225 336.711 290.376 339.844 289.06C343.04 287.681 346.424 286.992 349.996 286.992C353.881 286.992 357.234 287.65 360.054 288.966C362.937 290.282 365.287 292.037 367.104 294.23C368.984 296.423 370.363 298.993 371.24 301.938C372.18 304.883 372.65 307.985 372.65 311.244C372.65 315.067 372.055 318.639 370.864 321.96C369.673 325.281 367.95 328.195 365.694 330.702C363.501 333.146 360.806 335.089 357.61 336.53C354.414 337.971 350.779 338.692 346.706 338.692C343.698 338.692 340.815 338.128 338.058 337C335.301 335.872 332.857 334.243 330.726 332.112C328.658 329.981 326.997 327.381 325.744 324.31C324.553 321.177 323.958 317.636 323.958 313.688ZM414.85 266.03C415.915 265.466 417.074 265.059 418.328 264.808C419.644 264.557 420.96 264.432 422.276 264.432V336.248C421.398 336.749 420.239 337.094 418.798 337.282C417.419 337.533 416.103 337.658 414.85 337.658V266.03ZM488.316 333.24C491.324 333.24 494.05 332.394 496.494 330.702C498.938 328.947 500.786 326.597 502.04 323.652V289.53C503.105 288.966 504.264 288.559 505.518 288.308C506.834 288.057 508.15 287.932 509.466 287.932V336.248C508.588 336.749 507.492 337.094 506.176 337.282C504.922 337.533 503.669 337.658 502.416 337.658V328.728C501.789 329.793 500.912 330.921 499.784 332.112C498.718 333.24 497.434 334.305 495.93 335.308C494.426 336.248 492.702 337.031 490.76 337.658C488.88 338.285 486.78 338.598 484.462 338.598C482.143 338.598 479.95 338.253 477.882 337.564C475.876 336.875 474.122 335.809 472.618 334.368C471.114 332.864 469.923 331.015 469.046 328.822C468.168 326.566 467.73 323.903 467.73 320.832V289.53C468.795 288.966 469.954 288.559 471.208 288.308C472.524 288.057 473.84 287.932 475.156 287.932V318.012C475.156 320.832 475.5 323.213 476.19 325.156C476.879 327.099 477.819 328.665 479.01 329.856C480.2 331.047 481.579 331.924 483.146 332.488C484.775 332.989 486.498 333.24 488.316 333.24ZM548.29 291.786C548.791 291.097 549.575 290.47 550.64 289.906C551.768 289.279 552.99 288.966 554.306 288.966H557.314V275.43C558.317 274.615 559.476 274.02 560.792 273.644C562.171 273.205 563.487 272.986 564.74 272.986V288.966H583.164C583.101 290.031 582.788 290.94 582.224 291.692C581.723 292.381 581.065 292.726 580.25 292.726H564.74V323.558C564.74 325.563 564.959 327.193 565.398 328.446C565.899 329.637 566.557 330.577 567.372 331.266C568.187 331.955 569.127 332.425 570.192 332.676C571.257 332.927 572.354 333.052 573.482 333.052C575.55 333.052 577.273 332.645 578.652 331.83C580.031 331.015 581.159 330.169 582.036 329.292C582.913 329.543 583.477 330.075 583.728 330.89C583.415 331.391 582.913 332.049 582.224 332.864C581.535 333.679 580.626 334.493 579.498 335.308C578.37 336.06 577.023 336.718 575.456 337.282C573.889 337.846 572.135 338.128 570.192 338.128C568.437 338.128 566.777 337.909 565.21 337.47C563.643 337.031 562.265 336.311 561.074 335.308C559.946 334.305 559.037 332.958 558.348 331.266C557.659 329.574 557.314 327.475 557.314 324.968V292.726H548.29V291.786ZM633.243 273.174C632.679 274.177 631.802 275.242 630.611 276.37C629.42 277.435 628.355 278.187 627.415 278.626C626.475 278.187 625.41 277.435 624.219 276.37C623.028 275.242 622.12 274.177 621.493 273.174C622.12 272.109 623.028 271.012 624.219 269.884C625.41 268.756 626.475 267.941 627.415 267.44C628.355 267.941 629.42 268.756 630.611 269.884C631.864 271.012 632.742 272.109 633.243 273.174ZM623.467 289.53C624.532 288.966 625.692 288.559 626.945 288.308C628.261 288.057 629.577 287.932 630.893 287.932V336.248C630.016 336.749 628.856 337.094 627.415 337.282C626.036 337.533 624.72 337.658 623.467 337.658V289.53ZM681.049 310.774C681.049 314.722 681.519 318.169 682.459 321.114C683.462 324.059 684.747 326.535 686.313 328.54C687.943 330.483 689.791 331.955 691.859 332.958C693.99 333.961 696.215 334.462 698.533 334.462C703.547 334.462 707.369 332.801 710.001 329.48C712.633 326.096 713.949 321.02 713.949 314.252C713.949 310.993 713.573 307.954 712.821 305.134C712.069 302.314 710.941 299.87 709.437 297.802C707.996 295.734 706.21 294.105 704.079 292.914C701.949 291.723 699.505 291.128 696.747 291.128C694.742 291.128 692.799 291.504 690.919 292.256C689.039 293.008 687.379 294.199 685.937 295.828C684.496 297.395 683.305 299.431 682.365 301.938C681.488 304.382 681.049 307.327 681.049 310.774ZM673.153 313.688C673.153 309.865 673.843 306.325 675.221 303.066C676.6 299.745 678.449 296.925 680.767 294.606C683.149 292.225 685.906 290.376 689.039 289.06C692.235 287.681 695.619 286.992 699.191 286.992C703.077 286.992 706.429 287.65 709.249 288.966C712.132 290.282 714.482 292.037 716.299 294.23C718.179 296.423 719.558 298.993 720.435 301.938C721.375 304.883 721.845 307.985 721.845 311.244C721.845 315.067 721.25 318.639 720.059 321.96C718.869 325.281 717.145 328.195 714.889 330.702C712.696 333.146 710.001 335.089 706.805 336.53C703.609 337.971 699.975 338.692 695.901 338.692C692.893 338.692 690.011 338.128 687.253 337C684.496 335.872 682.052 334.243 679.921 332.112C677.853 329.981 676.193 327.381 674.939 324.31C673.749 321.177 673.153 317.636 673.153 313.688ZM798.731 307.672C798.731 302.345 797.634 298.46 795.441 296.016C793.248 293.509 790.146 292.256 786.135 292.256C784.694 292.256 783.252 292.538 781.811 293.102C780.432 293.603 779.085 294.293 777.769 295.17C776.516 296.047 775.325 297.081 774.197 298.272C773.069 299.4 772.066 300.591 771.189 301.844V336.248C770.312 336.749 769.152 337.094 767.711 337.282C766.332 337.533 765.016 337.658 763.763 337.658V289.53C765.831 288.465 768.15 287.932 770.719 287.932V297.238C771.534 296.173 772.568 295.045 773.821 293.854C775.137 292.601 776.578 291.473 778.145 290.47C779.774 289.467 781.529 288.653 783.409 288.026C785.352 287.337 787.42 286.992 789.613 286.992C794.689 286.992 798.7 288.527 801.645 291.598C804.653 294.669 806.157 299.055 806.157 304.758V336.248C805.28 336.749 804.12 337.094 802.679 337.282C801.3 337.533 799.984 337.658 798.731 337.658V307.672ZM847.499 327.036C848.001 326.159 848.815 325.344 849.943 324.592C851.134 323.84 852.387 323.401 853.703 323.276C854.142 326.472 855.677 329.135 858.309 331.266C861.004 333.334 864.419 334.368 868.555 334.368C872.503 334.368 875.417 333.522 877.297 331.83C879.24 330.075 880.211 327.913 880.211 325.344C880.211 322.775 879.303 320.769 877.485 319.328C875.731 317.887 872.691 316.633 868.367 315.568L862.821 314.158C860.816 313.657 858.999 313.093 857.369 312.466C855.803 311.839 854.424 311.087 853.233 310.21C852.105 309.27 851.228 308.173 850.601 306.92C849.975 305.667 849.661 304.131 849.661 302.314C849.661 300.371 850.163 298.491 851.165 296.674C852.168 294.794 853.547 293.133 855.301 291.692C857.119 290.251 859.187 289.123 861.505 288.308C863.887 287.431 866.456 286.992 869.213 286.992C872.033 286.992 874.415 287.337 876.357 288.026C878.3 288.653 879.898 289.467 881.151 290.47C882.467 291.41 883.407 292.444 883.971 293.572C884.598 294.7 884.943 295.703 885.005 296.58C884.567 297.457 883.815 298.241 882.749 298.93C881.684 299.557 880.525 299.933 879.271 300.058C878.833 297.677 877.611 295.609 875.605 293.854C873.6 292.099 870.592 291.222 866.581 291.222C865.265 291.222 863.949 291.41 862.633 291.786C861.38 292.099 860.252 292.601 859.249 293.29C858.247 293.979 857.432 294.825 856.805 295.828C856.179 296.768 855.865 297.896 855.865 299.212C855.865 301.343 856.617 303.066 858.121 304.382C859.625 305.635 862.257 306.701 866.017 307.578L871.751 308.988C877.203 310.367 881.089 312.121 883.407 314.252C885.789 316.32 886.979 318.983 886.979 322.242C886.979 324.31 886.509 326.347 885.569 328.352C884.629 330.295 883.251 332.049 881.433 333.616C879.616 335.12 877.391 336.311 874.759 337.188C872.127 338.128 869.119 338.598 865.735 338.598C862.79 338.598 860.221 338.222 858.027 337.47C855.834 336.781 853.954 335.872 852.387 334.744C850.883 333.616 849.724 332.394 848.909 331.078C848.095 329.699 847.625 328.352 847.499 327.036Z" fill="#4074B5"/>
<defs>
<linearGradient id="paint0_linear_151_13" x1="204.227" y1="5.38281" x2="1.70115" y2="210.963" gradientUnits="userSpaceOnUse">
<stop stop-color="#0B324B"/>
<stop offset="0.494485" stop-color="#3A8FCB"/>
<stop offset="1" stop-color="#0B324B"/>
</linearGradient>
<linearGradient id="paint1_linear_151_13" x1="204.227" y1="5.38281" x2="1.70115" y2="210.963" gradientUnits="userSpaceOnUse">
<stop stop-color="#0B324B"/>
<stop offset="0.494485" stop-color="#3A8FCB"/>
<stop offset="1" stop-color="#0B324B"/>
</linearGradient>
<linearGradient id="paint2_linear_151_13" x1="219.893" y1="32.2968" x2="28.805" y2="32.2968" gradientUnits="userSpaceOnUse">
<stop stop-color="#34AFE5"/>
<stop offset="1" stop-color="#4074B5"/>
</linearGradient>
<linearGradient id="paint3_linear_151_13" x1="-0.272163" y1="206.787" x2="218.77" y2="210.319" gradientUnits="userSpaceOnUse">
<stop stop-color="#34AFE5"/>
<stop offset="1" stop-color="#4074B5"/>
</linearGradient>
</defs>
</svg>
